<svg width="19" height="18" viewBox="0 0 19 18" fill="none" xmlns="http://www.w3.org/2000/svg">
<path d="M3.23047 11.625V2.625H1.73047V1.125H3.98047C4.19047 1.125 4.36797 1.1975 4.51297 1.3425C4.65797 1.4875 4.73047 1.665 4.73047 1.875V10.875H14.0605L15.5605 4.875H6.23047V3.375H16.5205C16.7305 3.375 16.908 3.4475 17.053 3.5925C17.198 3.7375 17.2705 3.915 17.2705 4.125C17.2705 4.185 17.2605 4.245 17.2405 4.305L15.3655 11.805C15.3255 11.975 15.238 12.1125 15.103 12.2175C14.968 12.3225 14.8155 12.375 14.6455 12.375H3.98047C3.77047 12.375 3.59297 12.3025 3.44797 12.1575C3.30297 12.0125 3.23047 11.835 3.23047 11.625ZM4.73047 16.875C4.46047 16.875 4.21047 16.8075 3.98047 16.6725C3.75047 16.5375 3.56797 16.355 3.43297 16.125C3.29797 15.895 3.23047 15.645 3.23047 15.375C3.23047 15.105 3.29797 14.855 3.43297 14.625C3.56797 14.395 3.75047 14.2125 3.98047 14.0775C4.21047 13.9425 4.46047 13.875 4.73047 13.875C5.00047 13.875 5.25047 13.9425 5.48047 14.0775C5.71047 14.2125 5.89297 14.395 6.02797 14.625C6.16297 14.855 6.23047 15.105 6.23047 15.375C6.23047 15.645 6.16297 15.895 6.02797 16.125C5.89297 16.355 5.71047 16.5375 5.48047 16.6725C5.25047 16.8075 5.00047 16.875 4.73047 16.875ZM13.7305 16.875C13.4605 16.875 13.2105 16.8075 12.9805 16.6725C12.7505 16.5375 12.568 16.355 12.433 16.125C12.298 15.895 12.2305 15.645 12.2305 15.375C12.2305 15.105 12.298 14.855 12.433 14.625C12.568 14.395 12.7505 14.2125 12.9805 14.0775C13.2105 13.9425 13.4605 13.875 13.7305 13.875C14.0005 13.875 14.2505 13.9425 14.4805 14.0775C14.7105 14.2125 14.893 14.395 15.028 14.625C15.163 14.855 15.2305 15.105 15.2305 15.375C15.2305 15.645 15.163 15.895 15.028 16.125C14.893 16.355 14.7105 16.5375 14.4805 16.6725C14.2505 16.8075 14.0005 16.875 13.7305 16.875Z" fill="#111827"/>
</svg>
